<svg xmlns="http://www.w3.org/2000/svg"  viewBox="0 0 80 80" width="480px" height="480px"><path fill="#e1ebf2" d="M8,55.5c-3.032,0-5.5-2.467-5.5-5.5V8c0-3.033,2.468-5.5,5.5-5.5h64c3.032,0,5.5,2.467,5.5,5.5v42 c0,3.033-2.468,5.5-5.5,5.5H8z"/><path fill="#66798f" d="M72,3c2.757,0,5,2.243,5,5v42c0,2.757-2.243,5-5,5H8c-2.757,0-5-2.243-5-5V8c0-2.757,2.243-5,5-5 H72 M72,2H8C4.686,2,2,4.686,2,8v42c0,3.314,2.686,6,6,6h64c3.314,0,6-2.686,6-6V8C78,4.686,75.314,2,72,2L72,2z"/><path fill="#e1ebf2" d="M8,77.5c-3.032,0-5.5-2.467-5.5-5.5V61c0-3.033,2.468-5.5,5.5-5.5h64c3.032,0,5.5,2.467,5.5,5.5v11 c0,3.033-2.468,5.5-5.5,5.5H8z"/><path fill="#66798f" d="M72,56c2.757,0,5,2.243,5,5v11c0,2.757-2.243,5-5,5H8c-2.757,0-5-2.243-5-5V61c0-2.757,2.243-5,5-5 H72 M72,55H8c-3.314,0-6,2.686-6,6v11c0,3.314,2.686,6,6,6h64c3.314,0,6-2.686,6-6V61C78,57.686,75.314,55,72,55L72,55z"/><path fill="#8bb7f0" d="M10.5 10.5H69.5V47.5H10.5z"/><path fill="#4e7ab5" d="M69,11v36H11V11H69 M70,10H10v38h60V10L70,10z"/><path fill="#66798f" d="M10 65H42V67H10z"/><path fill="#66798f" d="M30,66.333c0,0-1.259,2.667-5,2.667s-5-2.667-5-2.667L24.884,65L30,66.333z"/><g><path fill="#bae0bd" d="M66 63.5A3.5 3.5 0 1 0 66 70.5A3.5 3.5 0 1 0 66 63.5Z"/><path fill="#5e9c76" d="M66,64c1.654,0,3,1.346,3,3s-1.346,3-3,3s-3-1.346-3-3S64.346,64,66,64 M66,63 c-2.209,0-4,1.791-4,4s1.791,4,4,4s4-1.791,4-4S68.209,63,66,63L66,63z"/></g></svg>